# Blender v2.83 (sub 13) OBJ File: ''
# www.blender.org
mtllib merged_flowerBox.mtl
o merged_flowerBox_cube.002
v -0.248837 0.438833 0.500000
v -0.248837 0.001333 0.500000
v -0.248837 0.438833 -0.500000
v -0.248837 0.001333 -0.500000
v -0.311337 0.438833 -0.500000
v -0.311337 0.001333 -0.500000
v -0.311337 0.438833 0.500000
v -0.311337 0.001333 0.500000
v 0.251163 0.063833 0.437500
v 0.251163 0.001333 0.437500
v 0.251163 0.063833 -0.437500
v 0.251163 0.001333 -0.437500
v -0.248837 0.063833 -0.437500
v -0.248837 0.001333 -0.437500
v -0.248837 0.063833 0.437500
v -0.248837 0.001333 0.437500
v 0.251163 0.438833 0.500000
v 0.251163 0.001333 0.500000
v 0.251163 0.438833 0.437500
v 0.251163 0.001333 0.437500
v -0.248837 0.438833 0.437500
v -0.248837 0.001333 0.437500
v -0.248837 0.438833 0.500000
v -0.248837 0.001333 0.500000
v 0.313663 0.438833 0.500000
v 0.313663 0.001333 0.500000
v 0.313663 0.438833 -0.500000
v 0.313663 0.001333 -0.500000
v 0.251163 0.438833 -0.500000
v 0.251163 0.001333 -0.500000
v 0.251163 0.438833 0.500000
v 0.251163 0.001333 0.500000
v 0.251163 0.376333 0.437500
v 0.251163 0.313833 0.437500
v 0.251163 0.376333 -0.437500
v 0.251163 0.313833 -0.437500
v -0.248837 0.376333 -0.437500
v -0.248837 0.313833 -0.437500
v -0.248837 0.376333 0.437500
v -0.248837 0.313833 0.437500
v 0.251163 0.438833 -0.437500
v 0.251163 0.001333 -0.437500
v 0.251163 0.438833 -0.500000
v 0.251163 0.001333 -0.500000
v -0.248837 0.438833 -0.500000
v -0.248837 0.001333 -0.500000
v -0.248837 0.438833 -0.437500
v -0.248837 0.001333 -0.437500
vt 0.000000 1.000000
vt 0.000000 0.730769
vt 0.333333 1.000000
vt 0.333333 0.730769
vt 0.000000 1.000000
vt 0.000000 0.384615
vt 0.020833 1.000000
vt 0.020833 0.384615
vt 0.000000 1.000000
vt 0.000000 0.961538
vt 0.291667 1.000000
vt 0.291667 0.961538
vt 0.000000 1.000000
vt 0.000000 0.961538
vt 0.291667 1.000000
vt 0.291667 0.961538
vt 0.000000 0.461538
vt 0.166667 1.000000
vt 0.166667 0.461538
vt 0.000000 1.000000
vt 0.000000 0.461538
vt 0.166667 1.000000
vt 0.166667 0.461538
vt 0.000000 1.000000
vt 0.000000 0.961538
vt 0.166667 1.000000
vt 0.166667 0.961538
vt 0.000000 1.000000
vt 0.000000 0.961538
vt 0.166667 1.000000
vt 0.166667 0.961538
vt 0.000000 1.000000
vt 0.000000 0.730769
vt 0.333333 1.000000
vt 0.333333 0.730769
vt 0.000000 1.000000
vt 0.000000 0.384615
vt 0.020833 1.000000
vt 0.020833 0.384615
vt 0.000000 1.000000
vt 0.000000 0.961538
vt 0.291667 1.000000
vt 0.291667 0.961538
vt 0.000000 1.000000
vt 0.000000 0.961538
vt 0.291667 1.000000
vt 0.291667 0.961538
vt 0.000000 1.000000
vt 0.000000 0.461538
vt 0.166667 1.000000
vt 0.166667 0.461538
vt 0.000000 1.000000
vt 0.000000 0.961538
vt 0.166667 1.000000
vt 0.166667 0.961538
vt 0.000000 1.000000
vt 0.000000 0.961538
vt 0.166667 1.000000
vt 0.166667 0.961538
vt 0.000000 1.000000
vt 0.000000 0.000038
vt 0.999979 1.000000
vt 0.999979 0.000038
vt 0.000000 1.000000
vt 0.000000 0.000038
vt 0.104146 1.000000
vt 0.104146 0.000038
vt 0.916646 1.000000
vt 0.916646 0.000038
vt 0.999958 1.000000
vt 0.999958 0.000038
vt 0.104125 1.000000
vt 0.104125 0.000077
vt 0.895750 1.000000
vt 0.895750 0.000077
vt 0.104125 1.000000
vt 0.104125 0.000077
vt 0.895750 1.000000
vt 0.895750 0.000077
vt 0.104125 1.000000
vt 0.895750 1.000000
vt 0.104125 1.000000
vt 0.104125 0.000077
vt 0.895750 1.000000
vt 0.895750 0.000077
vt 0.104125 1.000000
vt 0.104125 0.000077
vt 0.895750 1.000000
vt 0.895750 0.000077
vt 0.000000 1.000000
vt 0.000000 0.000038
vt 0.999979 1.000000
vt 0.999979 0.000038
vt 0.895833 1.000000
vt 0.895833 0.000038
vt 0.999979 1.000000
vt 0.999979 0.000038
vt 0.000000 1.000000
vt 0.000000 0.000038
vt 0.104146 1.000000
vt 0.104146 0.000038
vt 0.104125 1.000000
vt 0.104125 0.000077
vt 0.895750 1.000000
vt 0.895750 0.000077
vt 0.104125 1.000000
vt 0.104125 0.000077
vt 0.895750 1.000000
vt 0.895750 0.000077
vt 0.104125 1.000000
vt 0.895750 1.000000
vt 0.104125 1.000000
vt 0.104125 0.000077
vt 0.895750 1.000000
vt 0.895750 0.000077
vt 0.104125 1.000000
vt 0.104125 0.000077
vt 0.895750 1.000000
vt 0.895750 0.000077
vt 0.000000 0.929000
vt 0.000000 0.000077
vt 0.076917 0.929000
vt 0.076917 0.000077
vt 0.000000 0.929000
vt 0.000000 0.000115
vt 0.060833 0.929000
vt 0.060833 0.000115
vt 0.000000 0.929000
vt 0.000000 0.000154
vt 0.056021 0.929000
vt 0.056021 0.000154
vt 0.000000 0.929000
vt 0.000000 0.000115
vt 0.060833 0.929000
vt 0.060833 0.000115
vt 1.000000 0.000000
vt 1.000000 1.000000
vt 0.000000 0.000000
vn 1.0000 0.0000 0.0000
vn 0.0000 -1.0000 -0.0000
vn -1.0000 0.0000 0.0000
vn 0.0000 1.0000 0.0000
vn 0.0000 0.0000 1.0000
vn 0.0000 0.0000 -1.0000
usemtl none
s 1
f 1/1/1 2/2/1 3/3/1
f 2/2/1 4/4/1 3/3/1
f 8/5/2 6/6/2 2/7/2
f 6/6/2 4/8/2 2/7/2
f 9/9/1 10/10/1 11/11/1
f 10/10/1 12/12/1 11/11/1
f 13/13/3 14/14/3 15/15/3
f 14/14/3 16/16/3 15/15/3
f 13/13/4 15/17/4 11/18/4
f 15/17/4 9/19/4 11/18/4
f 16/20/2 14/21/2 10/22/2
f 14/21/2 12/23/2 10/22/2
f 15/24/5 16/25/5 9/26/5
f 16/25/5 10/27/5 9/26/5
f 11/28/6 12/29/6 13/30/6
f 12/29/6 14/31/6 13/30/6
f 29/32/3 30/33/3 31/34/3
f 30/33/3 32/35/3 31/34/3
f 32/36/2 30/37/2 26/38/2
f 30/37/2 28/39/2 26/38/2
f 33/40/1 34/41/1 35/42/1
f 34/41/1 36/43/1 35/42/1
f 37/44/3 38/45/3 39/46/3
f 38/45/3 40/47/3 39/46/3
f 40/48/2 38/49/2 34/50/2
f 38/49/2 36/51/2 34/50/2
f 39/52/5 40/53/5 33/54/5
f 40/53/5 34/55/5 33/54/5
f 35/56/6 36/57/6 37/58/6
f 36/57/6 38/59/6 37/58/6
usemtl 0
f 5/60/3 6/61/3 7/62/3
f 6/61/3 8/63/3 7/62/3
f 7/64/5 8/65/5 1/66/5
f 8/65/5 2/67/5 1/66/5
f 3/68/6 4/69/6 5/70/6
f 4/69/6 6/71/6 5/70/6
f 17/72/1 18/73/1 19/74/1
f 18/73/1 20/75/1 19/74/1
f 21/76/3 22/77/3 23/78/3
f 22/77/3 24/79/3 23/78/3
f 24/80/2 22/77/2 18/81/2
f 22/77/2 20/75/2 18/81/2
f 23/82/5 24/83/5 17/84/5
f 24/83/5 18/85/5 17/84/5
f 19/86/6 20/87/6 21/88/6
f 20/87/6 22/89/6 21/88/6
f 25/90/1 26/91/1 27/92/1
f 26/91/1 28/93/1 27/92/1
f 31/94/5 32/95/5 25/96/5
f 32/95/5 26/97/5 25/96/5
f 27/98/6 28/99/6 29/100/6
f 28/99/6 30/101/6 29/100/6
f 41/102/1 42/103/1 43/104/1
f 42/103/1 44/105/1 43/104/1
f 45/106/3 46/107/3 47/108/3
f 46/107/3 48/109/3 47/108/3
f 48/110/2 46/107/2 42/111/2
f 46/107/2 44/105/2 42/111/2
f 47/112/5 48/113/5 41/114/5
f 48/113/5 42/115/5 41/114/5
f 43/116/6 44/117/6 45/118/6
f 44/117/6 46/119/6 45/118/6
usemtl 1
f 5/120/4 7/121/4 3/122/4
f 7/121/4 1/123/4 3/122/4
f 21/124/4 23/125/4 19/126/4
f 23/125/4 17/127/4 19/126/4
f 29/128/4 31/129/4 27/130/4
f 31/129/4 25/131/4 27/130/4
f 45/132/4 47/133/4 43/134/4
f 47/133/4 41/135/4 43/134/4
usemtl 3
f 37/136/4 39/137/4 35/138/4
f 39/137/4 33/40/4 35/138/4
