# Made in Blockbench 3.4.2
mtllib bed.mtl
o cube
v -0.25 -0.375 -0.25
v -0.25 -0.375 -0.375
v -0.25 -0.5 -0.25
v -0.25 -0.5 -0.375
v -0.375 -0.375 -0.375
v -0.375 -0.375 -0.25
v -0.375 -0.5 -0.375
v -0.375 -0.5 -0.25
vt 0 1
vt 0 0.9375
vt 0.0625 1
vt 0 0.9375
vt 0.0625 0.9375
vt 0.0625 1
vt 0 1
vt 0 0.9375
vt 0.0625 1
vt 0 0.9375
vt 0.0625 0.9375
vt 0.0625 1
vt 0 1
vt 0 0.9375
vt 0.0625 1
vt 0 0.9375
vt 0.0625 0.9375
vt 0.0625 1
vt 0 1
vt 0 0.9375
vt 0.0625 1
vt 0 0.9375
vt 0.0625 0.9375
vt 0.0625 1
vt 0 1
vt 0 0.9375
vt 0.0625 1
vt 0 0.9375
vt 0.0625 0.9375
vt 0.0625 1
vt 0 1
vt 0 0.9375
vt 0.0625 1
vt 0 0.9375
vt 0.0625 0.9375
vt 0.0625 1
vn 1 0 0
vn 1 0 0
vn 1 0 0
vn 1 0 0
vn 1 0 0
vn 1 0 0
vn -1 0 0
vn -1 0 0
vn -1 0 0
vn -1 0 0
vn -1 0 0
vn -1 0 0
vn 0 1 0
vn 0 1 0
vn 0 1 0
vn 0 1 0
vn 0 1 0
vn 0 1 0
vn 0 -1 0
vn 0 -1 0
vn 0 -1 0
vn 0 -1 0
vn 0 -1 0
vn 0 -1 0
vn 0 0 1
vn 0 0 1
vn 0 0 1
vn 0 0 1
vn 0 0 1
vn 0 0 1
vn 0 0 -1
vn 0 0 -1
vn 0 0 -1
vn 0 0 -1
vn 0 0 -1
vn 0 0 -1
usemtl 0
f 1/1/1 3/2/2 2/3/3
f 3/4/4 4/5/5 2/6/6
usemtl 0
f 5/7/7 7/8/8 6/9/9
f 7/10/10 8/11/11 6/12/12
usemtl 0
f 5/13/13 6/14/14 2/15/15
f 6/16/16 1/17/17 2/18/18
usemtl 0
f 8/19/19 7/20/20 3/21/21
f 7/22/22 4/23/23 3/24/24
usemtl 0
f 6/25/25 8/26/26 1/27/27
f 8/28/28 3/29/29 1/30/30
usemtl 0
f 2/31/31 4/32/32 5/33/33
f 4/34/34 7/35/35 5/36/36
o cube
v 0.375 -0.375 -0.25
v 0.375 -0.375 -0.375
v 0.375 -0.5 -0.25
v 0.375 -0.5 -0.375
v 0.25 -0.375 -0.375
v 0.25 -0.375 -0.25
v 0.25 -0.5 -0.375
v 0.25 -0.5 -0.25
vt 0 1
vt 0 0.9375
vt 0.0625 1
vt 0 0.9375
vt 0.0625 0.9375
vt 0.0625 1
vt 0 1
vt 0 0.9375
vt 0.0625 1
vt 0 0.9375
vt 0.0625 0.9375
vt 0.0625 1
vt 0 1
vt 0 0.9375
vt 0.0625 1
vt 0 0.9375
vt 0.0625 0.9375
vt 0.0625 1
vt 0 1
vt 0 0.9375
vt 0.0625 1
vt 0 0.9375
vt 0.0625 0.9375
vt 0.0625 1
vt 0 1
vt 0 0.9375
vt 0.0625 1
vt 0 0.9375
vt 0.0625 0.9375
vt 0.0625 1
vt 0 1
vt 0 0.9375
vt 0.0625 1
vt 0 0.9375
vt 0.0625 0.9375
vt 0.0625 1
vn 1 0 0
vn 1 0 0
vn 1 0 0
vn 1 0 0
vn 1 0 0
vn 1 0 0
vn -1 0 0
vn -1 0 0
vn -1 0 0
vn -1 0 0
vn -1 0 0
vn -1 0 0
vn 0 1 0
vn 0 1 0
vn 0 1 0
vn 0 1 0
vn 0 1 0
vn 0 1 0
vn 0 -1 0
vn 0 -1 0
vn 0 -1 0
vn 0 -1 0
vn 0 -1 0
vn 0 -1 0
vn 0 0 1
vn 0 0 1
vn 0 0 1
vn 0 0 1
vn 0 0 1
vn 0 0 1
vn 0 0 -1
vn 0 0 -1
vn 0 0 -1
vn 0 0 -1
vn 0 0 -1
vn 0 0 -1
usemtl 0
f 9/37/37 11/38/38 10/39/39
f 11/40/40 12/41/41 10/42/42
usemtl 0
f 13/43/43 15/44/44 14/45/45
f 15/46/46 16/47/47 14/48/48
usemtl 0
f 13/49/49 14/50/50 10/51/51
f 14/52/52 9/53/53 10/54/54
usemtl 0
f 16/55/55 15/56/56 11/57/57
f 15/58/58 12/59/59 11/60/60
usemtl 0
f 14/61/61 16/62/62 9/63/63
f 16/64/64 11/65/65 9/66/66
usemtl 0
f 10/67/67 12/68/68 13/69/69
f 12/70/70 15/71/71 13/72/72
o cube
v -0.25 -0.375 1.125
v -0.25 -0.375 1
v -0.25 -0.5 1.125
v -0.25 -0.5 1
v -0.375 -0.375 1
v -0.375 -0.375 1.125
v -0.375 -0.5 1
v -0.375 -0.5 1.125
vt 0 1
vt 0 0.9375
vt 0.0625 1
vt 0 0.9375
vt 0.0625 0.9375
vt 0.0625 1
vt 0 1
vt 0 0.9375
vt 0.0625 1
vt 0 0.9375
vt 0.0625 0.9375
vt 0.0625 1
vt 0 1
vt 0 0.9375
vt 0.0625 1
vt 0 0.9375
vt 0.0625 0.9375
vt 0.0625 1
vt 0 1
vt 0 0.9375
vt 0.0625 1
vt 0 0.9375
vt 0.0625 0.9375
vt 0.0625 1
vt 0 1
vt 0 0.9375
vt 0.0625 1
vt 0 0.9375
vt 0.0625 0.9375
vt 0.0625 1
vt 0 1
vt 0 0.9375
vt 0.0625 1
vt 0 0.9375
vt 0.0625 0.9375
vt 0.0625 1
vn 1 0 0
vn 1 0 0
vn 1 0 0
vn 1 0 0
vn 1 0 0
vn 1 0 0
vn -1 0 0
vn -1 0 0
vn -1 0 0
vn -1 0 0
vn -1 0 0
vn -1 0 0
vn 0 1 0
vn 0 1 0
vn 0 1 0
vn 0 1 0
vn 0 1 0
vn 0 1 0
vn 0 -1 0
vn 0 -1 0
vn 0 -1 0
vn 0 -1 0
vn 0 -1 0
vn 0 -1 0
vn 0 0 1
vn 0 0 1
vn 0 0 1
vn 0 0 1
vn 0 0 1
vn 0 0 1
vn 0 0 -1
vn 0 0 -1
vn 0 0 -1
vn 0 0 -1
vn 0 0 -1
vn 0 0 -1
usemtl 0
f 17/73/73 19/74/74 18/75/75
f 19/76/76 20/77/77 18/78/78
usemtl 0
f 21/79/79 23/80/80 22/81/81
f 23/82/82 24/83/83 22/84/84
usemtl 0
f 21/85/85 22/86/86 18/87/87
f 22/88/88 17/89/89 18/90/90
usemtl 0
f 24/91/91 23/92/92 19/93/93
f 23/94/94 20/95/95 19/96/96
usemtl 0
f 22/97/97 24/98/98 17/99/99
f 24/100/100 19/101/101 17/102/102
usemtl 0
f 18/103/103 20/104/104 21/105/105
f 20/106/106 23/107/107 21/108/108
o cube
v 0.375 -0.375 1.125
v 0.375 -0.375 1
v 0.375 -0.5 1.125
v 0.375 -0.5 1
v 0.25 -0.375 1
v 0.25 -0.375 1.125
v 0.25 -0.5 1
v 0.25 -0.5 1.125
vt 0 1
vt 0 0.9375
vt 0.0625 1
vt 0 0.9375
vt 0.0625 0.9375
vt 0.0625 1
vt 0 1
vt 0 0.9375
vt 0.0625 1
vt 0 0.9375
vt 0.0625 0.9375
vt 0.0625 1
vt 0 1
vt 0 0.9375
vt 0.0625 1
vt 0 0.9375
vt 0.0625 0.9375
vt 0.0625 1
vt 0 1
vt 0 0.9375
vt 0.0625 1
vt 0 0.9375
vt 0.0625 0.9375
vt 0.0625 1
vt 0 1
vt 0 0.9375
vt 0.0625 1
vt 0 0.9375
vt 0.0625 0.9375
vt 0.0625 1
vt 0 1
vt 0 0.9375
vt 0.0625 1
vt 0 0.9375
vt 0.0625 0.9375
vt 0.0625 1
vn 1 0 0
vn 1 0 0
vn 1 0 0
vn 1 0 0
vn 1 0 0
vn 1 0 0
vn -1 0 0
vn -1 0 0
vn -1 0 0
vn -1 0 0
vn -1 0 0
vn -1 0 0
vn 0 1 0
vn 0 1 0
vn 0 1 0
vn 0 1 0
vn 0 1 0
vn 0 1 0
vn 0 -1 0
vn 0 -1 0
vn 0 -1 0
vn 0 -1 0
vn 0 -1 0
vn 0 -1 0
vn 0 0 1
vn 0 0 1
vn 0 0 1
vn 0 0 1
vn 0 0 1
vn 0 0 1
vn 0 0 -1
vn 0 0 -1
vn 0 0 -1
vn 0 0 -1
vn 0 0 -1
vn 0 0 -1
usemtl 0
f 25/109/109 27/110/110 26/111/111
f 27/112/112 28/113/113 26/114/114
usemtl 0
f 29/115/115 31/116/116 30/117/117
f 31/118/118 32/119/119 30/120/120
usemtl 0
f 29/121/121 30/122/122 26/123/123
f 30/124/124 25/125/125 26/126/126
usemtl 0
f 32/127/127 31/128/128 27/129/129
f 31/130/130 28/131/131 27/132/132
usemtl 0
f 30/133/133 32/134/134 25/135/135
f 32/136/136 27/137/137 25/138/138
usemtl 0
f 26/139/139 28/140/140 29/141/141
f 28/142/142 31/143/143 29/144/144
o cube
v 0.4375 -0.3125 1.1875
v 0.4375 -0.3125 -0.4375
v 0.4375 -0.375 1.1875
v 0.4375 -0.375 -0.4375
v -0.4375 -0.3125 -0.4375
v -0.4375 -0.3125 1.1875
v -0.4375 -0.375 -0.4375
v -0.4375 -0.375 1.1875
vt 0.0255 0.949
vt 0.0255 0.8865
vt 0.463 0.949
vt 0.0255 0.8865
vt 0.463 0.8865
vt 0.463 0.949
vt 0.0255 0.949
vt 0.0255 0.8865
vt 0.463 0.949
vt 0.0255 0.8865
vt 0.463 0.8865
vt 0.463 0.949
vt 0.463 0.886625
vt 0.463 0.949
vt 0.0255 0.886625
vt 0.463 0.949
vt 0.0255 0.949
vt 0.0255 0.886625
vt 0.0255 0.949
vt 0.0255 0.8865
vt 0.463 0.949
vt 0.0255 0.8865
vt 0.463 0.8865
vt 0.463 0.949
vt 0.0255 0.949
vt 0.0255 0.8865
vt 0.463 0.949
vt 0.0255 0.8865
vt 0.463 0.8865
vt 0.463 0.949
vt 0.0255 0.949
vt 0.0255 0.8865
vt 0.463 0.949
vt 0.0255 0.8865
vt 0.463 0.8865
vt 0.463 0.949
vn 1 0 0
vn 1 0 0
vn 1 0 0
vn 1 0 0
vn 1 0 0
vn 1 0 0
vn -1 0 0
vn -1 0 0
vn -1 0 0
vn -1 0 0
vn -1 0 0
vn -1 0 0
vn 0 1 0
vn 0 1 0
vn 0 1 0
vn 0 1 0
vn 0 1 0
vn 0 1 0
vn 0 -1 0
vn 0 -1 0
vn 0 -1 0
vn 0 -1 0
vn 0 -1 0
vn 0 -1 0
vn 0 0 1
vn 0 0 1
vn 0 0 1
vn 0 0 1
vn 0 0 1
vn 0 0 1
vn 0 0 -1
vn 0 0 -1
vn 0 0 -1
vn 0 0 -1
vn 0 0 -1
vn 0 0 -1
usemtl 0
f 33/145/145 35/146/146 34/147/147
f 35/148/148 36/149/149 34/150/150
usemtl 0
f 37/151/151 39/152/152 38/153/153
f 39/154/154 40/155/155 38/156/156
usemtl 0
f 37/157/157 38/158/158 34/159/159
f 38/160/160 33/161/161 34/162/162
usemtl 0
f 40/163/163 39/164/164 35/165/165
f 39/166/166 36/167/167 35/168/168
usemtl 0
f 38/169/169 40/170/170 33/171/171
f 40/172/172 35/173/173 33/174/174
usemtl 0
f 34/175/175 36/176/176 37/177/177
f 36/178/178 39/179/179 37/180/180
o cube
v 0.4375 -0.1875 1.125
v 0.4375 -0.1875 -0.4375
v 0.4375 -0.3125 1.125
v 0.4375 -0.3125 -0.4375
v -0.4375 -0.1875 -0.4375
v -0.4375 -0.1875 1.125
v -0.4375 -0.3125 -0.4375
v -0.4375 -0.3125 1.125
vt 0.473125 0.11250000000000004
vt 0.473125 0.3775625
vt 0.020375 0.11250000000000004
vt 0.473125 0.3775625
vt 0.020375 0.3775625
vt 0.020375 0.11250000000000004
vt 0.473125 0.11250000000000004
vt 0.473125 0.3775625
vt 0.020375 0.11250000000000004
vt 0.473125 0.3775625
vt 0.020375 0.3775625
vt 0.020375 0.11250000000000004
vt 0.473125 0.11250000000000004
vt 0.473125 0.3775625
vt 0.020375 0.11250000000000004
vt 0.473125 0.3775625
vt 0.020375 0.3775625
vt 0.020375 0.11250000000000004
vt 0.473125 0.11250000000000004
vt 0.473125 0.3775625
vt 0.020375 0.11250000000000004
vt 0.473125 0.3775625
vt 0.020375 0.3775625
vt 0.020375 0.11250000000000004
vt 0.473125 0.11250000000000004
vt 0.473125 0.3775625
vt 0.020375 0.11250000000000004
vt 0.473125 0.3775625
vt 0.020375 0.3775625
vt 0.020375 0.11250000000000004
vt 0.9781875 0.5514375
vt 0.9781875 0.816375
vt 0.5255 0.5514375
vt 0.9781875 0.816375
vt 0.5255 0.816375
vt 0.5255 0.5514375
vn 1 0 0
vn 1 0 0
vn 1 0 0
vn 1 0 0
vn 1 0 0
vn 1 0 0
vn -1 0 0
vn -1 0 0
vn -1 0 0
vn -1 0 0
vn -1 0 0
vn -1 0 0
vn 0 1 0
vn 0 1 0
vn 0 1 0
vn 0 1 0
vn 0 1 0
vn 0 1 0
vn 0 -1 0
vn 0 -1 0
vn 0 -1 0
vn 0 -1 0
vn 0 -1 0
vn 0 -1 0
vn 0 0 1
vn 0 0 1
vn 0 0 1
vn 0 0 1
vn 0 0 1
vn 0 0 1
vn 0 0 -1
vn 0 0 -1
vn 0 0 -1
vn 0 0 -1
vn 0 0 -1
vn 0 0 -1
usemtl 0
f 41/181/181 43/182/182 42/183/183
f 43/184/184 44/185/185 42/186/186
usemtl 0
f 45/187/187 47/188/188 46/189/189
f 47/190/190 48/191/191 46/192/192
usemtl 0
f 45/193/193 46/194/194 42/195/195
f 46/196/196 41/197/197 42/198/198
usemtl 0
f 48/199/199 47/200/200 43/201/201
f 47/202/202 44/203/203 43/204/204
usemtl 0
f 46/205/205 48/206/206 41/207/207
f 48/208/208 43/209/209 41/210/210
usemtl 0
f 42/211/211 44/212/212 45/213/213
f 44/214/214 47/215/215 45/216/216
o cube
v 0.4375 0.125 1.2000000000000002
v 0.4375 0.125 1.1062500000000002
v 0.4375 0 1.2000000000000002
v 0.4375 0 1.1062500000000002
v 0.3125 0.125 1.1062500000000002
v 0.3125 0.125 1.2000000000000002
v 0.3125 0 1.1062500000000002
v 0.3125 0 1.2000000000000002
vt 0 1
vt 0 0.9375
vt 0.0625 1
vt 0 0.9375
vt 0.0625 0.9375
vt 0.0625 1
vt 0 1
vt 0 0.9375
vt 0.0625 1
vt 0 0.9375
vt 0.0625 0.9375
vt 0.0625 1
vt 0 1
vt 0 0.9375
vt 0.0625 1
vt 0 0.9375
vt 0.0625 0.9375
vt 0.0625 1
vt 0 1
vt 0 0.9375
vt 0.0625 1
vt 0 0.9375
vt 0.0625 0.9375
vt 0.0625 1
vt 0 1
vt 0 0.9375
vt 0.0625 1
vt 0 0.9375
vt 0.0625 0.9375
vt 0.0625 1
vt 0 1
vt 0 0.9375
vt 0.0625 1
vt 0 0.9375
vt 0.0625 0.9375
vt 0.0625 1
vn 1 0 0
vn 1 0 0
vn 1 0 0
vn 1 0 0
vn 1 0 0
vn 1 0 0
vn -1 0 0
vn -1 0 0
vn -1 0 0
vn -1 0 0
vn -1 0 0
vn -1 0 0
vn 0 1 0
vn 0 1 0
vn 0 1 0
vn 0 1 0
vn 0 1 0
vn 0 1 0
vn 0 -1 0
vn 0 -1 0
vn 0 -1 0
vn 0 -1 0
vn 0 -1 0
vn 0 -1 0
vn 0 0 1
vn 0 0 1
vn 0 0 1
vn 0 0 1
vn 0 0 1
vn 0 0 1
vn 0 0 -1
vn 0 0 -1
vn 0 0 -1
vn 0 0 -1
vn 0 0 -1
vn 0 0 -1
usemtl 0
f 49/217/217 51/218/218 50/219/219
f 51/220/220 52/221/221 50/222/222
usemtl 0
f 53/223/223 55/224/224 54/225/225
f 55/226/226 56/227/227 54/228/228
usemtl 0
f 53/229/229 54/230/230 50/231/231
f 54/232/232 49/233/233 50/234/234
usemtl 0
f 56/235/235 55/236/236 51/237/237
f 55/238/238 52/239/239 51/240/240
usemtl 0
f 54/241/241 56/242/242 49/243/243
f 56/244/244 51/245/245 49/246/246
usemtl 0
f 50/247/247 52/248/248 53/249/249
f 52/250/250 55/251/251 53/252/252
o cube
v -0.3125 0.125 1.2000000000000002
v -0.3125 0.125 1.1062500000000002
v -0.3125 0 1.2000000000000002
v -0.3125 0 1.1062500000000002
v -0.4375 0.125 1.1062500000000002
v -0.4375 0.125 1.2000000000000002
v -0.4375 0 1.1062500000000002
v -0.4375 0 1.2000000000000002
vt 0 1
vt 0 0.9375
vt 0.0625 1
vt 0 0.9375
vt 0.0625 0.9375
vt 0.0625 1
vt 0 1
vt 0 0.9375
vt 0.0625 1
vt 0 0.9375
vt 0.0625 0.9375
vt 0.0625 1
vt 0 1
vt 0 0.9375
vt 0.0625 1
vt 0 0.9375
vt 0.0625 0.9375
vt 0.0625 1
vt 0 1
vt 0 0.9375
vt 0.0625 1
vt 0 0.9375
vt 0.0625 0.9375
vt 0.0625 1
vt 0 1
vt 0 0.9375
vt 0.0625 1
vt 0 0.9375
vt 0.0625 0.9375
vt 0.0625 1
vt 0 1
vt 0 0.9375
vt 0.0625 1
vt 0 0.9375
vt 0.0625 0.9375
vt 0.0625 1
vn 1 0 0
vn 1 0 0
vn 1 0 0
vn 1 0 0
vn 1 0 0
vn 1 0 0
vn -1 0 0
vn -1 0 0
vn -1 0 0
vn -1 0 0
vn -1 0 0
vn -1 0 0
vn 0 1 0
vn 0 1 0
vn 0 1 0
vn 0 1 0
vn 0 1 0
vn 0 1 0
vn 0 -1 0
vn 0 -1 0
vn 0 -1 0
vn 0 -1 0
vn 0 -1 0
vn 0 -1 0
vn 0 0 1
vn 0 0 1
vn 0 0 1
vn 0 0 1
vn 0 0 1
vn 0 0 1
vn 0 0 -1
vn 0 0 -1
vn 0 0 -1
vn 0 0 -1
vn 0 0 -1
vn 0 0 -1
usemtl 0
f 57/253/253 59/254/254 58/255/255
f 59/256/256 60/257/257 58/258/258
usemtl 0
f 61/259/259 63/260/260 62/261/261
f 63/262/262 64/263/263 62/264/264
usemtl 0
f 61/265/265 62/266/266 58/267/267
f 62/268/268 57/269/269 58/270/270
usemtl 0
f 64/271/271 63/272/272 59/273/273
f 63/274/274 60/275/275 59/276/276
usemtl 0
f 62/277/277 64/278/278 57/279/279
f 64/280/280 59/281/281 57/282/282
usemtl 0
f 58/283/283 60/284/284 61/285/285
f 60/286/286 63/287/287 61/288/288
o cube
v 0.4375 0 1.1875
v 0.4375 0 1.125
v 0.4375 -0.3125 1.1875
v 0.4375 -0.3125 1.125
v -0.4375 0 1.125
v -0.4375 0 1.1875
v -0.4375 -0.3125 1.125
v -0.4375 -0.3125 1.1875
vt 0.0255 0.949
vt 0.0255 0.8865
vt 0.463 0.949
vt 0.0255 0.8865
vt 0.463 0.8865
vt 0.463 0.949
vt 0.0255 0.949
vt 0.0255 0.8865
vt 0.463 0.949
vt 0.0255 0.8865
vt 0.463 0.8865
vt 0.463 0.949
vt 0.463 0.886625
vt 0.463 0.949
vt 0.0255 0.886625
vt 0.463 0.949
vt 0.0255 0.949
vt 0.0255 0.886625
vt 0.0255 0.949
vt 0.0255 0.8865
vt 0.463 0.949
vt 0.0255 0.8865
vt 0.463 0.8865
vt 0.463 0.949
vt 0.0255 0.949
vt 0.0255 0.8865
vt 0.463 0.949
vt 0.0255 0.8865
vt 0.463 0.8865
vt 0.463 0.949
vt 0.0255 0.949
vt 0.0255 0.8865
vt 0.463 0.949
vt 0.0255 0.8865
vt 0.463 0.8865
vt 0.463 0.949
vn 1 0 0
vn 1 0 0
vn 1 0 0
vn 1 0 0
vn 1 0 0
vn 1 0 0
vn -1 0 0
vn -1 0 0
vn -1 0 0
vn -1 0 0
vn -1 0 0
vn -1 0 0
vn 0 1 0
vn 0 1 0
vn 0 1 0
vn 0 1 0
vn 0 1 0
vn 0 1 0
vn 0 -1 0
vn 0 -1 0
vn 0 -1 0
vn 0 -1 0
vn 0 -1 0
vn 0 -1 0
vn 0 0 1
vn 0 0 1
vn 0 0 1
vn 0 0 1
vn 0 0 1
vn 0 0 1
vn 0 0 -1
vn 0 0 -1
vn 0 0 -1
vn 0 0 -1
vn 0 0 -1
vn 0 0 -1
usemtl 0
f 65/289/289 67/290/290 66/291/291
f 67/292/292 68/293/293 66/294/294
usemtl 0
f 69/295/295 71/296/296 70/297/297
f 71/298/298 72/299/299 70/300/300
usemtl 0
f 69/301/301 70/302/302 66/303/303
f 70/304/304 65/305/305 66/306/306
usemtl 0
f 72/307/307 71/308/308 67/309/309
f 71/310/310 68/311/311 67/312/312
usemtl 0
f 70/313/313 72/314/314 65/315/315
f 72/316/316 67/317/317 65/318/318
usemtl 0
f 66/319/319 68/320/320 69/321/321
f 68/322/322 71/323/323 69/324/324
o cube
v 0.3125 -0.11875000000000002 1.09375
v 0.3125 -0.11875000000000002 0.78125
v 0.3125 -0.1875 1.09375
v 0.3125 -0.1875 0.78125
v -0.3125 -0.11875000000000002 0.78125
v -0.3125 -0.11875000000000002 1.09375
v -0.3125 -0.1875 0.78125
v -0.3125 -0.1875 1.09375
vt 0.09690625 0.867375
vt 0.09690625 0.7080625
vt 0.348125 0.867375
vt 0.09690625 0.7080625
vt 0.348125 0.7080625
vt 0.348125 0.867375
vt 0.09690625 0.867375
vt 0.09690625 0.7080625
vt 0.348125 0.867375
vt 0.09690625 0.7080625
vt 0.348125 0.7080625
vt 0.348125 0.867375
vt 0.09690625 0.867375
vt 0.09690625 0.7080625
vt 0.348125 0.867375
vt 0.09690625 0.7080625
vt 0.348125 0.7080625
vt 0.348125 0.867375
vt 0.09690625 0.867375
vt 0.09690625 0.7080625
vt 0.348125 0.867375
vt 0.09690625 0.7080625
vt 0.348125 0.7080625
vt 0.348125 0.867375
vt 0.09690625 0.867375
vt 0.09690625 0.7080625
vt 0.348125 0.867375
vt 0.09690625 0.7080625
vt 0.348125 0.7080625
vt 0.348125 0.867375
vt 0.09690625 0.867375
vt 0.09690625 0.7080625
vt 0.348125 0.867375
vt 0.09690625 0.7080625
vt 0.348125 0.7080625
vt 0.348125 0.867375
vn 1 0 0
vn 1 0 0
vn 1 0 0
vn 1 0 0
vn 1 0 0
vn 1 0 0
vn -1 0 0
vn -1 0 0
vn -1 0 0
vn -1 0 0
vn -1 0 0
vn -1 0 0
vn 0 1 0
vn 0 1 0
vn 0 1 0
vn 0 1 0
vn 0 1 0
vn 0 1 0
vn 0 -1 0
vn 0 -1 0
vn 0 -1 0
vn 0 -1 0
vn 0 -1 0
vn 0 -1 0
vn 0 0 1
vn 0 0 1
vn 0 0 1
vn 0 0 1
vn 0 0 1
vn 0 0 1
vn 0 0 -1
vn 0 0 -1
vn 0 0 -1
vn 0 0 -1
vn 0 0 -1
vn 0 0 -1
usemtl 0
f 73/325/325 75/326/326 74/327/327
f 75/328/328 76/329/329 74/330/330
usemtl 0
f 77/331/331 79/332/332 78/333/333
f 79/334/334 80/335/335 78/336/336
usemtl 0
f 77/337/337 78/338/338 74/339/339
f 78/340/340 73/341/341 74/342/342
usemtl 0
f 80/343/343 79/344/344 75/345/345
f 79/346/346 76/347/347 75/348/348
usemtl 0
f 78/349/349 80/350/350 73/351/351
f 80/352/352 75/353/353 73/354/354
usemtl 0
f 74/355/355 76/356/356 77/357/357
f 76/358/358 79/359/359 77/360/360
